HIERARCHY
ROOT Hips
{
	OFFSET 0.00000 0.00000 0.00000
	CHANNELS 6 Xposition Yposition Zposition Zrotation Yrotation Xrotation 
	JOINT LHipJoint
	{
		OFFSET 0 0 0
		CHANNELS 3 Zrotation Yrotation Xrotation
		JOINT LeftHip
		{
			OFFSET 1.62964 -1.40469 0.78906
			CHANNELS 3 Zrotation Yrotation Xrotation
			JOINT LeftKnee
			{
				OFFSET 2.29640 -6.30932 0.00000
				CHANNELS 3 Zrotation Yrotation Xrotation
				JOINT LeftAnkle
				{
					OFFSET 2.29451 -6.30412 0.00000
					CHANNELS 3 Zrotation Yrotation Xrotation
					JOINT LeftToe
					{
						OFFSET 0.03611 -0.09921 1.56387
						CHANNELS 3 Zrotation Yrotation Xrotation
						End Site
						{
							OFFSET 0.00000 -0.00000 0.80291
						}
					}
				}
			}
		}
	}
	JOINT RHipJoint
	{
		OFFSET 0 0 0
		CHANNELS 3 Zrotation Yrotation Xrotation
		JOINT RightHip
		{
			OFFSET -1.73712 -1.40469 0.78906
			CHANNELS 3 Zrotation Yrotation Xrotation
			JOINT RightKnee
			{
				OFFSET -2.28137 -6.26801 0.00000
				CHANNELS 3 Zrotation Yrotation Xrotation
				JOINT RightAnkle
				{
					OFFSET -2.28681 -6.28298 0.00000
					CHANNELS 3 Zrotation Yrotation Xrotation
					JOINT RightToe
					{
						OFFSET -0.15927 -0.43759 1.61103
						CHANNELS 3 Zrotation Yrotation Xrotation
						End Site
						{
							OFFSET -0.00000 -0.00000 0.84630
						}
					}
				}
			}
		}
	}
	JOINT lowerback
	{
		OFFSET 0 0 0
		CHANNELS 3 Zrotation Yrotation Xrotation
		JOINT Chest
		{
			OFFSET -0.04227 2.04338 -0.00225
			CHANNELS 3 Zrotation Yrotation Xrotation
			JOINT Chest2
			{
				OFFSET -0.02148 2.04482 -0.04273
				CHANNELS 3 Zrotation Yrotation Xrotation
				JOINT lowerneck
				{
					OFFSET 0 0 0
					CHANNELS 3 Zrotation Yrotation Xrotation
					JOINT Neck
					{
						OFFSET 0.09180 1.44629 0.19359
						CHANNELS 3 Zrotation Yrotation Xrotation
						JOINT Head
						{
							OFFSET 0.00887 1.40645 0.14750
							CHANNELS 3 Zrotation Yrotation Xrotation
							End Site
							{
								OFFSET -0.00669 1.50671 0.03707
							}
						}
					}
				}
				JOINT LeftCollar
				{
					OFFSET 0 0 0
					CHANNELS 3 Zrotation Yrotation Xrotation
					JOINT LeftShoulder
					{
						OFFSET 2.17674 1.86763 -0.06520
CHANNELS 3 Zrotation Xrotation Yrotation
						JOINT LeftElbow
						{
OFFSET 0 -4.657760 0.000000
CHANNELS 3 Zrotation Xrotation Yrotation
							JOINT LeftWrist
							{
OFFSET 0 -3.555390 0.000000
CHANNELS 3 Zrotation Xrotation Yrotation
								JOINT lhand
								{
									OFFSET 0 0 0
CHANNELS 3 Zrotation Xrotation Yrotation
									JOINT LFingers
									{
OFFSET 0 -0.707260 0.000000
CHANNELS 3 Zrotation Xrotation Yrotation
										End Site
										{
OFFSET 0 -0.570220 0.000000
										}
									}
								}
								JOINT LThumb
								{
OFFSET 0 0.000000 0.000000
CHANNELS 3 Zrotation Xrotation Yrotation
									End Site
									{
OFFSET 0 -0.578920 0.578920
									}
								}
							}
						}
					}
				}
				JOINT RightCollar
				{
					OFFSET 0 0 0
					CHANNELS 3 Zrotation Yrotation Xrotation
					JOINT RightShoulder
					{
						OFFSET -2.80694 1.55459 -0.32496
CHANNELS 3 Zrotation Xrotation Yrotation
						JOINT RightElbow
						{
OFFSET 0 -4.719250 -0.000000
CHANNELS 3 Zrotation Xrotation Yrotation
							JOINT RightWrist
							{
OFFSET 0 -3.569900 0.000000
CHANNELS 3 Zrotation Xrotation Yrotation
								JOINT rhand
								{
									OFFSET 0 0 0
CHANNELS 3 Zrotation Xrotation Yrotation
									JOINT RFingers
									{
OFFSET 0 -0.507760 0.000000
CHANNELS 3 Zrotation Xrotation Yrotation
										End Site
										{
OFFSET 0 -0.409370 0.000000
										}
									}
								}
								JOINT RThumb
								{
OFFSET 0 0.000000 0.000000
CHANNELS 3 Zrotation Xrotation Yrotation
									End Site
									{
OFFSET 0 -0.415620 0.415620
									}
								}
							}
						}
					}
				}
			}
		}
	}
}
MOTION
Frames: 14
Frame Time: .0083333
9.2175 16.3489 10.6475 179.6620 0.9113 -149.9500 0.0000 0.0000 0.0000 -14.2068 -19.5750 -24.4102 0.1997 2.8773 7.9374 0.1884 0.4900 -8.3907 4.6748 -13.0080 -39.3984 0.0000 0.0000 0.0000 18.3002 15.7897 -23.0377 -0.0782 -1.8039 4.9641 -0.9158 -4.2176 -20.0751 -2.0289 8.9260 -25.5643 -6.1315 -0.5867 -29.9694 -0.5823 2.3275 -2.6059 3.6658 1.1631 12.6433 -3.5764 -0.1330 -0.1087 6.9350 -1.0065 8.7536 2.8857 -0.5696 2.9092 -0.0000 0.0000 0.0000 3.8596 1.4403 -19.243 13.7156 -22.3266 2.7191 22.9447 -8.3087 15.5826 0.0 0.0 0.0 -7.1250 0.0 0.0 -3.1606 13.1504 -2.3624 -0.0000 0.0000 0.0000 2.7182 -0.2212 22.7664 -24.5616 -35.7525 -8.0324 -6.7117 0.0483 55.6436 0.0 0.0 0.0 7.1250 0.0 -0.0 78.3423 74.3334 -61.9891
9.2165 16.3477 10.6464 179.6030 0.9516 -149.9780 0.0000 0.0000 0.0000 -14.2848 -19.6367 -24.3571 0.2002 2.8808 7.9471 0.1885 0.5198 -8.4062 4.7670 -13.1165 -39.8063 0.0000 0.0000 0.0000 18.2191 15.7947 -23.0217 -0.0794 -1.8173 5.0010 -0.9222 -4.1818 -20.1147 -2.0000 8.8660 -25.3771 -6.2057 -0.6215 -29.9646 -0.5767 2.2993 -2.5618 3.7018 1.1400 12.6904 -3.5886 -0.1156 -0.1056 6.9293 -0.9818 8.7506 2.8865 -0.5579 2.9061 0.0000 0.0000 0.0000 3.8424 1.4007 -19.2472 13.7303 -22.3478 2.7247 22.9561 -8.1947 15.3666 0.0 0.0 0.0 -7.1250 0.0 0.0 -3.1390 13.3801 -2.331 0.0000 0.0000 0.0000 2.5847 -0.173 22.5022 -24.4232 -35.6085 -7.9516 -8.5833 1.6231 55.9346 0.0 0.0 0.0 7.1250 0.0 -0.0 79.0011 75.0469 -63.447
9.2161 16.3488 10.6465 179.6080 0.9621 -150.0140 0.0000 0.0000 0.0000 -14.2893 -19.6268 -24.3176 0.1995 2.8762 7.9344 0.1847 0.5591 -8.3409 4.8625 -13.2273 -40.2253 0.0000 0.0000 0.0000 18.2191 15.8146 -22.9762 -0.0798 -1.8226 5.0156 -0.9293 -4.1310 -20.1522 -1.9759 8.8157 -25.2204 -6.2275 -0.6244 -29.9198 -0.5650 2.2889 -2.5213 3.7218 1.1275 12.7160 -3.5634 -0.1177 -0.1262 6.9178 -0.9838 8.7539 2.8780 -0.5578 2.9107 0.0000 -0.0000 0.0000 3.8418 1.3283 -19.2935 13.7367 -22.357 2.7271 22.9058 -8.1225 15.213 0.0 0.0 0.0 -7.1250 0.0 0.0 -3.1632 13.5506 -2.3376 0.0000 -0.0000 0.0000 2.4592 -0.1179 22.2991 -24.3576 -35.5401 -7.9134 -7.0686 0.4774 56.4855 0.0 0.0 0.0 7.1250 0.0 -0.0 81.2983 74.5571 -65.1447
9.2143 16.3494 10.6452 179.6490 1.0038 -150.0100 0.0000 0.0000 0.0000 -14.2531 -19.6234 -24.3065 0.1994 2.8756 7.9326 0.1845 0.6452 -8.3734 4.8151 -13.1725 -40.0177 0.0000 0.0000 0.0000 18.2262 15.9201 -22.9442 -0.0799 -1.8238 5.0191 -0.9325 -4.1331 -20.1846 -1.9782 8.8206 -25.2356 -6.1803 -0.5941 -29.8711 -0.5674 2.3083 -2.5404 3.6994 1.1411 12.6729 -3.5590 -0.1265 -0.1424 6.9167 -0.9961 8.7640 2.8768 -0.5635 2.9179 -0.0000 -0.0000 0.0000 3.8651 1.335 -19.3809 13.7351 -22.3547 2.7265 22.8892 -8.3348 15.433 0.0 0.0 0.0 -7.1250 0.0 0.0 -3.1883 13.3174 -2.3719 -0.0000 -0.0000 0.0000 2.3298 -0.0421 22.0969 -24.1634 -35.3366 -7.8009 -6.362 0.028 56.9714 0.0 0.0 0.0 7.1250 0.0 -0.0 83.1607 74.3421 -66.7503
9.2118 16.3476 10.6429 179.6480 1.1047 -149.9660 0.0000 0.0000 0.0000 -14.2895 -19.6037 -24.3110 0.1980 2.8657 7.9049 0.1859 0.7134 -8.4351 4.7103 -13.0499 -39.5557 0.0000 0.0000 0.0000 18.1845 15.9348 -23.0219 -0.0808 -1.8338 5.0466 -0.9331 -4.0628 -20.1485 -1.9833 8.8312 -25.2688 -6.1692 -0.5743 -29.8599 -0.5835 2.3394 -2.5980 3.6863 1.1646 12.6009 -3.5743 -0.1253 -0.1419 6.9168 -0.9953 8.7749 2.8798 -0.5638 2.9216 -0.0000 -0.0000 0.0000 3.8572 1.4012 -19.3033 13.7155 -22.3265 2.7191 22.8302 -8.3937 15.7311 0.0 0.0 0.0 -7.1250 0.0 0.0 -3.2472 13.006 -2.4371 -0.0000 -0.0000 0.0000 2.2007 0.063 21.8676 -23.9097 -35.0687 -7.6546 -8.8743 1.8377 53.6857 0.0 0.0 0.0 7.1250 0.0 -0.0 70.6332 74.738 -55.1258
9.2108 16.3468 10.6429 179.6230 1.1517 -149.9220 0.0000 0.0000 0.0000 -14.3229 -19.5872 -24.3659 0.1983 2.8678 7.9110 0.1859 0.6891 -8.4247 4.7321 -13.0756 -39.6520 0.0000 0.0000 0.0000 18.1481 15.8708 -23.1160 -0.0810 -1.8353 5.0508 -0.9319 -3.9789 -20.0889 -1.9774 8.8189 -25.2305 -6.1868 -0.5871 -29.8815 -0.5947 2.3353 -2.6121 3.6826 1.1644 12.5946 -3.5846 -0.1155 -0.1416 6.9126 -0.9817 8.7787 2.8807 -0.5574 2.9221 -0.0000 0.0000 0.0000 3.8781 1.465 -19.362 13.7525 -22.3797 2.7332 22.7136 -8.3516 15.6825 0.0 0.0 0.0 -7.1250 0.0 0.0 -3.3223 13.0725 -2.489 -0.0000 0.0000 0.0000 2.1021 0.0485 21.6519 -23.6714 -34.8148 -7.5181 -6.9997 0.4856 56.319 0.0 0.0 0.0 7.1250 0.0 -0.0 80.7062 74.5173 -64.5144
9.2101 16.3471 10.6431 179.6590 1.1638 -149.9010 0.0000 0.0000 0.0000 -14.2483 -19.6219 -24.4110 0.2006 2.8843 7.9568 0.1879 0.7029 -8.4746 4.7699 -13.1198 -39.8188 0.0000 0.0000 0.0000 18.1533 16.0101 -23.1361 -0.0833 -1.8620 5.1244 -0.9319 -4.0755 -20.1448 -1.9759 8.8158 -25.2207 -6.1473 -0.5732 -29.9038 -0.5938 2.3390 -2.5911 3.6647 1.1646 12.6295 -3.5800 -0.1240 -0.1659 6.9161 -0.9923 8.7788 2.8810 -0.5618 2.9273 0.0000 0.0000 0.0000 3.9232 1.46 -19.5834 13.8088 -22.4606 2.7546 22.7434 -8.3713 15.4918 0.0 0.0 0.0 -7.1250 0.0 0.0 -3.2901 13.2726 -2.451 0.0000 0.0000 0.0000 2.0113 -0.0014 21.4607 -23.4634 -34.5916 -7.3997 -5.2883 -0.888 57.6174 0.0 0.0 0.0 7.1250 0.0 -0.0 85.5857 73.9953 -68.795
9.2087 16.3455 10.6415 179.7140 1.2172 -149.8180 0.0000 0.0000 0.0000 -14.1530 -19.6690 -24.5000 0.2027 2.8988 7.9970 0.1919 0.7558 -8.5843 4.6501 -12.9786 -39.2884 0.0000 0.0000 0.0000 18.1726 16.1116 -23.2594 -0.0871 -1.9032 5.2381 -0.9352 -4.1227 -20.2032 -2.0169 8.9011 -25.4865 -6.0974 -0.5329 -30.0148 -0.5980 2.3886 -2.5936 3.6545 1.1898 12.6735 -3.5448 -0.1423 -0.1775 6.9200 -1.0177 8.7719 2.8751 -0.5729 2.9283 0.0000 -0.0000 0.0000 3.9643 1.4836 -19.8196 13.8911 -22.5789 2.7862 22.7842 -8.4207 15.3311 0.0 0.0 0.0 -7.1250 0.0 0.0 -3.2525 13.4392 -2.4115 0.0000 -0.0000 0.0000 1.9437 0.0507 21.1852 -23.2946 -34.4094 -7.3041 -6.5342 0.097 56.0073 0.0 0.0 0.0 7.1250 0.0 -0.0 79.6803 74.317 -63.2761
9.2075 16.3437 10.6396 179.7440 1.2703 -149.7180 0.0000 0.0000 0.0000 -14.0948 -19.6918 -24.6177 0.2035 2.9044 8.0127 0.1928 0.7661 -8.6080 4.5720 -12.8850 -38.9395 0.0000 0.0000 0.0000 18.1567 16.1935 -23.3337 -0.0866 -1.8977 5.2231 -0.9345 -4.1618 -20.2195 -2.0292 8.9266 -25.5660 -6.0546 -0.5104 -30.1297 -0.6187 2.4224 -2.6051 3.6247 1.2096 12.7109 -3.5024 -0.1479 -0.1812 6.9179 -1.0260 8.7626 2.8661 -0.5758 2.9258 0.0000 0.0000 0.0000 4.0247 1.5779 -19.9987 14.0127 -22.7528 2.833 22.7226 -8.5191 15.2009 0.0 0.0 0.0 -7.1250 0.0 0.0 -3.2859 13.5858 -2.4262 0.0000 0.0000 0.0000 1.956 0.1209 20.8203 -23.1958 -34.3022 -7.2483 -6.6482 0.32 55.4747 0.0 0.0 0.0 7.1250 0.0 -0.0 77.7592 74.2856 -61.3685
9.2074 16.3442 10.6374 179.7760 1.3001 -149.7120 0.0000 0.0000 0.0000 -14.0476 -19.6921 -24.6253 0.2038 2.9071 8.0202 0.1924 0.7964 -8.6139 4.5498 -12.8581 -38.8398 0.0000 0.0000 0.0000 18.1522 16.3258 -23.2355 -0.0833 -1.8611 5.1220 -0.9300 -4.1929 -20.1957 -1.9726 8.8088 -25.1990 -5.9997 -0.4908 -30.1296 -0.6370 2.4308 -2.6011 3.5786 1.2156 12.7178 -3.5043 -0.1467 -0.1615 6.9246 -1.0255 8.7552 2.8685 -0.5761 2.9197 0.0000 -0.0000 0.0000 4.0621 1.546 -19.9582 14.0147 -22.7558 2.8338 22.6178 -8.4341 15.107 0.0 0.0 0.0 -7.1250 0.0 0.0 -3.3509 13.6988 -2.4664 0.0000 -0.0000 0.0000 1.972 0.1534 20.5174 -23.1043 -34.2027 -7.1969 -6.4566 0.3252 55.5971 0.0 0.0 0.0 7.1250 0.0 -0.0 78.2431 74.2348 -61.7792
9.2070 16.3455 10.6351 179.7230 1.3503 -149.7380 0.0000 0.0000 0.0000 -14.1555 -19.6080 -24.6175 0.2073 2.9315 8.0882 0.1947 0.7538 -8.6434 4.5681 -12.8802 -38.9217 0.0000 0.0000 0.0000 18.0569 16.3921 -23.1734 -0.0819 -1.8454 5.0787 -0.9312 -4.1378 -20.1749 -1.9225 8.7027 -24.8698 -6.0563 -0.4979 -30.1279 -0.6449 2.4377 -2.5735 3.6036 1.2122 12.7454 -3.5478 -0.1464 -0.1564 6.9381 -1.0246 8.7538 2.8813 -0.5767 2.9190 0.0000 -0.0000 0.0000 4.0416 1.462 -19.9358 13.9997 -22.7343 2.828 22.5281 -8.2954 14.9716 0.0 0.0 0.0 -7.1250 0.0 0.0 -3.4034 13.8541 -2.494 0.0000 -0.0000 0.0000 1.891 0.2402 20.3947 -23.0243 -34.1154 -7.1519 -7.0649 0.8032 55.297 0.0 0.0 0.0 7.1250 0.0 -0.0 77.0140 74.4087 -60.7898
9.2062 16.3479 10.6307 179.6510 1.3167 -149.7920 0.0000 0.0000 0.0000 -14.3025 -19.5394 -24.5533 0.2088 2.9419 8.1171 0.1946 0.6791 -8.6077 4.7168 -13.0576 -39.5844 0.0000 0.0000 0.0000 17.9869 16.3842 -23.0777 -0.0812 -1.8381 5.0583 -0.9329 -4.1910 -20.2221 -1.9168 8.6905 -24.8320 -6.1280 -0.5377 -30.1197 -0.6401 2.4002 -2.5116 3.6342 1.1826 12.8121 -3.5669 -0.1517 -0.2161 6.9438 -1.0290 8.7627 2.8873 -0.5773 2.9338 -0.0000 0.0000 0.0000 4.012 1.395 -19.9796 14.0232 -22.7678 2.8371 22.6157 -8.351 14.9416 0.0 0.0 0.0 -7.1250 0.0 0.0 -3.3424 13.8756 -2.4476 -0.0000 0.0000 0.0000 1.7959 0.407 20.4071 -23.0615 -34.156 -7.1728 -7.6938 1.2351 55.2518 0.0 0.0 0.0 7.1250 0.0 -0.0 76.6804 74.63 -60.7219
9.2054 16.3496 10.6258 179.5940 1.2088 -149.9300 0.0000 0.0000 0.0000 -14.4143 -19.5785 -24.3245 0.2049 2.9143 8.0401 0.1928 0.6580 -8.5597 4.8190 -13.1771 -40.0350 0.0000 0.0000 0.0000 18.0203 16.2270 -22.8385 -0.0774 -1.7945 4.9380 -0.9259 -4.3193 -20.2316 -1.9589 8.7799 -25.1091 -6.1597 -0.5883 -29.9854 -0.6278 2.3189 -2.4541 3.6316 1.1353 12.8235 -3.5822 -0.1480 -0.2626 6.9418 -1.0212 8.7713 2.8902 -0.5725 2.9451 0.0000 -0.0000 0.0000 4.0133 1.3591 -20.0203 14.0245 -22.7697 2.8376 22.8025 -8.5321 14.9824 0.0 0.0 0.0 -7.1250 0.0 0.0 -3.2186 13.8098 -2.3611 0.0000 -0.0000 0.0000 1.7218 0.4879 20.2999 -23.0069 -34.0963 -7.1421 -7.6115 1.2754 56.0389 0.0 0.0 0.0 7.1250 0.0 -0.0 79.5704 74.7076 -63.6167
9.2049 16.3501 10.6256 179.4870 1.2080 -150.0260 0.0000 0.0000 0.0000 -14.5697 -19.6116 -24.1983 0.2041 2.9090 8.0256 0.1946 0.6031 -8.5735 4.7409 -13.0860 -39.6911 0.0000 0.0000 0.0000 17.9265 16.1459 -22.6983 -0.0749 -1.7652 4.8571 -0.9205 -4.3931 -20.2241 -1.9788 8.8217 -25.2392 -6.2570 -0.6301 -29.8262 -0.6404 2.2789 -2.4446 3.6516 1.1115 12.7637 -3.6270 -0.1395 -0.2683 6.9458 -1.0082 8.7756 2.9005 -0.5670 2.9475 0.0000 -0.0000 0.0000 4.0171 1.3628 -20.032 14.0263 -22.7723 2.8383 22.8129 -8.7042 15.1362 0.0 0.0 0.0 -7.1250 0.0 0.0 -3.2210 13.6441 -2.3741 0.0000 -0.0000 0.0000 1.6736 0.4958 20.0519 -22.8416 -33.9151 -7.0497 -6.2124 0.1563 54.5152 0.0 0.0 0.0 7.1250 0.0 -0.0 74.5522 73.9524 -57.9095
